<?xml version="1.0" encoding="utf-8"?>
<!-- Generator: Adobe Illustrator 27.9.0, SVG Export Plug-In . SVG Version: 6.00 Build 0)  -->
<svg version="1.1" id="Layer_1" xmlns="http://www.w3.org/2000/svg" xmlns:xlink="http://www.w3.org/1999/xlink" x="0px" y="0px"
	 viewBox="0 0 364.2 80.2" style="enable-background:new 0 0 364.2 80.2;" xml:space="preserve">
<g>
	<g>
		<g>
			<g>
				<g>
					<g>
						<g>
							<path d="M199.7,35.2c0,0.3-0.2,0.5-0.5,0.5h-34.4c-0.3,0-0.5-0.2-0.5-0.5V20.8c0-0.3-0.2-0.5-0.5-0.5h-9.6
								c-0.3,0-0.5,0.2-0.5,0.5v38.7c0,0.3,0.2,0.5,0.5,0.5h9.6c0.3,0,0.5-0.2,0.5-0.5v-15c0-0.3,0.2-0.5,0.5-0.5h34.4
								c0.3,0,0.5,0.2,0.5,0.5v15c0,0.3,0.2,0.5,0.5,0.5h9.6c0.3,0,0.5-0.2,0.5-0.5V20.8c0-0.3-0.2-0.5-0.5-0.5h-9.6
								c-0.3,0-0.5,0.2-0.5,0.5L199.7,35.2L199.7,35.2z"/>
						</g>
					</g>
				</g>
			</g>
			<g>
				<path d="M235.9,51.8v-7.5c0-0.3,0.2-0.5,0.5-0.5h20.7c0.3,0,0.5-0.2,0.5-0.5v-7c0-0.3-0.2-0.5-0.5-0.5h-20.7
					c-0.3,0-0.5-0.2-0.5-0.5v-6.7c0-0.3,0.2-0.5,0.5-0.5h30.8c0.3,0,0.5-0.2,0.5-0.5v-6.8c0-0.3-0.2-0.5-0.5-0.5h-31.3h-10.1
					c-0.3,0-0.5,0.2-0.5,0.5v38.7c0,0.3,0.2,0.5,0.5,0.5h10.1h32.8c0.3,0,0.5-0.2,0.5-0.5v-6.7c0-0.3-0.2-0.5-0.5-0.5h-32.3
					C236.1,52.2,235.9,52.1,235.9,51.8z"/>
			</g>
			<g>
				<path d="M141.6,20.8c0-0.3-0.2-0.5-0.5-0.5h-22.5h-10.7H85.4c-0.3,0-0.5,0.2-0.5,0.5v7.1c0,0.3,0.2,0.5,0.5,0.5h22
					c0.3,0,0.5,0.2,0.5,0.5v30.6c0,0.3,0.2,0.5,0.5,0.5h9.6c0.3,0,0.5-0.2,0.5-0.5V28.9c0-0.3,0.2-0.5,0.5-0.5h22
					c0.3,0,0.5-0.2,0.5-0.5v-7.1H141.6z"/>
			</g>
			<g>
				<path d="M74.4,60h10.3c0.4,0,0.7-0.5,0.4-0.8L59.7,20.5c-0.1-0.1-0.3-0.2-0.4-0.2h-9.9c-0.2,0-0.3,0.1-0.4,0.2L23.2,59.2
					c-0.2,0.3,0,0.8,0.4,0.8h10.1c0.2,0,0.3-0.1,0.4-0.2l4.9-7.5c0.1-0.1,0.3-0.2,0.4-0.2h29.2c0.2,0,0.3,0.1,0.4,0.2l4.9,7.5
					C74.1,59.9,74.2,60,74.4,60z M45.1,43l8.6-13.2c0.2-0.3,0.7-0.3,0.9,0L63.1,43c0.2,0.3,0,0.8-0.4,0.8H45.5
					C45.1,43.8,44.9,43.4,45.1,43z"/>
			</g>
			<g>
				<path d="M332.3,45.5c3.6-2.5,6-6.7,5.9-11.5c-0.1-7.7-6.6-13.8-14.3-13.8h-30.5h-10.1c-0.3,0-0.5,0.2-0.5,0.5V48v11.5
					c0,0.3,0.2,0.5,0.5,0.5h9.6c0.3,0,0.5-0.2,0.5-0.5v-11c0-0.3,0.2-0.5,0.5-0.5h27.9c0.2,0,0.3,0.1,0.4,0.2l7.9,11.6
					c0.1,0.1,0.3,0.2,0.4,0.2h9.9c0.4,0,0.7-0.5,0.4-0.8l-8.9-13C332,46,332,45.7,332.3,45.5z M322.4,39.7h-24.6
					c-3.1,0-5.8-2.4-5.8-5.4c-0.1-3.2,2.5-5.8,5.6-5.8h24.6c3.1,0,5.8,2.4,5.8,5.4C328.1,37.1,325.6,39.7,322.4,39.7z"/>
			</g>
		</g>
	</g>
</g>
</svg>
